<?xml version="1.0" standalone="no"?>
<!DOCTYPE svg PUBLIC "-//W3C//DTD SVG 20010904//EN"
 "http://www.w3.org/TR/2001/REC-SVG-20010904/DTD/svg10.dtd">
<svg version="1.0" xmlns="http://www.w3.org/2000/svg"
 width="600.000000pt" height="600.000000pt" viewBox="0 0 600.000000 600.000000"
 preserveAspectRatio="xMidYMid meet">

<g transform="translate(0.000000,600.000000) scale(0.100000,-0.100000)"
fill="#000000" stroke="none">
<path d="M2835 4247 c-150 -50 -295 -191 -430 -418 -79 -132 -303 -579 -466
-928 -66 -139 -119 -255 -119 -257 0 -3 -47 -109 -104 -237 -57 -128 -114
-262 -126 -298 -28 -84 -37 -194 -20 -254 25 -89 129 -151 295 -175 87 -12
1495 -14 1495 -1 0 4 -43 114 -96 242 -52 129 -100 246 -106 262 l-10 27 -414
0 c-228 0 -414 2 -414 4 0 9 148 354 232 540 120 268 284 587 326 636 18 22
42 40 53 40 28 0 93 -63 145 -141 41 -61 234 -427 234 -443 0 -3 -92 -6 -205
-6 -113 0 -205 -1 -205 -3 0 -2 -45 -104 -100 -227 -55 -122 -100 -227 -100
-231 0 -5 185 -9 410 -9 l411 0 28 -62 c15 -35 79 -192 142 -350 l114 -288
343 0 c188 0 342 2 342 5 0 8 -105 245 -184 413 -42 90 -76 165 -76 167 0 3
-53 120 -119 262 -65 142 -164 359 -221 483 -175 385 -210 460 -300 640 -109
218 -189 338 -299 450 -70 71 -101 95 -166 126 -70 33 -90 38 -165 41 -52 2
-101 -2 -125 -10z"/>
</g>
</svg>
